<svg xmlns="http://www.w3.org/2000/svg" viewBox="0 0 24 24" fill="none" stroke="currentColor" stroke-width="2" stroke-linecap="round" stroke-linejoin="round">
  <path d="M9.5 2C4.5 2 2 5.5 2 9.5C2 13.5 4.5 17 9.5 17H10V21.5C10 21.78 10.22 22 10.5 22C10.78 22 11 21.78 11 21.5V17H14.5C19.5 17 22 13.5 22 9.5C22 5.5 19.5 2 14.5 2H9.5Z"></path>
  <path d="M9.5 6C10.05 6 10.5 6.45 10.5 7C10.5 7.55 10.05 8 9.5 8C8.95 8 8.5 7.55 8.5 7C8.5 6.45 8.95 6 9.5 6Z"></path>
  <path d="M14.5 6C15.05 6 15.5 6.45 15.5 7C15.5 7.55 15.05 8 14.5 8C13.95 8 13.5 7.55 13.5 7C13.5 6.45 13.95 6 14.5 6Z"></path>
  <path d="M12 13C13.1046 13 14 12.1046 14 11C14 9.89543 13.1046 9 12 9C10.8954 9 10 9.89543 10 11C10 12.1046 10.8954 13 12 13Z"></path>
</svg> 