<svg xmlns="http://www.w3.org/2000/svg" viewBox="0 0 48 48" width="48px" height="48px">
  <rect width="36" height="36" x="6" y="6" fill="#fff"/>
  <path fill="#4285f4" d="M24,44c2.21,0,4-1.79,4-4v-4H20v4C20,42.21,21.79,44,24,44z"/>
  <path fill="#ea4335" d="M44,24c0-2.21-1.79-4-4-4h-4v8h4C42.21,28,44,26.21,44,24z"/>
  <path fill="#fbbc05" d="M24,4c-2.21,0-4,1.79-4,4v4h8V8C28,5.79,26.21,4,24,4z"/>
  <path fill="#34a853" d="M8,24c0,2.21,1.79,4,4,4h4v-8h-4C9.79,20,8,21.79,8,24z"/>
  <path fill="#4285f4" d="M34,30h4v4h-4V30z"/>
  <path fill="#ea4335" d="M10,30h4v4h-4V30z"/>
  <path fill="#fbbc05" d="M30,34h4v4h-4V34z"/>
  <path fill="#34a853" d="M14,34h4v4h-4V34z"/>
  <path fill="#4285f4" d="M31.27,15H28v12h3v-8.73c0-1.35,1.1-2.27,2.45-2.27H36V13h-2.55C32.22,13,31.54,13.89,31.27,15z"/>
  <path fill="#ea4335" d="M16.73,33H20V21h-3v8.73c0,1.35-1.1,2.27-2.45,2.27H12v3h2.55C15.78,35,16.46,34.11,16.73,33z"/>
  <path fill="#fbbc05" d="M33,16.73V13h-3v3h2.45C32.9,16,33,16.38,33,16.73z"/>
  <path fill="#34a853" d="M15,31.27V35h3v-3h-2.45C15.1,32,15,31.62,15,31.27z"/>
</svg> 