<svg xmlns="http://www.w3.org/2000/svg" viewBox="0 0 48 48" width="48px" height="48px">
  <path fill="#0078d4" d="M24,4C12.95,4,4,12.95,4,24s8.95,20,20,20s20-8.95,20-20S35.05,4,24,4z"/>
  <path fill="#fff" d="M24,15c-4.97,0-9,4.03-9,9s4.03,9,9,9s9-4.03,9-9S28.97,15,24,15z M28,25h-3v3c0,0.55-0.45,1-1,1	s-1-0.45-1-1v-3h-3c-0.55,0-1-0.45-1-1s0.45-1,1-1h3v-3c0-0.55,0.45-1,1-1s1,0.45,1,1v3h3c0.55,0,1,0.45,1,1S28.55,25,28,25z"/>
  <path fill="#0078d4" d="M20,11c-1.66,0-3,1.34-3,3h-3c-1.1,0-2,0.9-2,2v20c0,1.1,0.9,2,2,2h20c1.1,0,2-0.9,2-2V16c0-1.1-0.9-2-2-2h-3	c0-1.66-1.34-3-3-3H20z M20,13h8c0.55,0,1,0.45,1,1s-0.45,1-1,1h-8c-0.55,0-1-0.45-1-1S19.45,13,20,13z M14,18h20v16H14V18z M16,20v2h16v-2H16z M16,24v8h16v-8H16z M18,26h4v4h-4V26z M24,26h6v4h-6V26z"/>
</svg> 