<svg xmlns="http://www.w3.org/2000/svg" viewBox="0 0 512 512">
  <defs>
    <linearGradient id="grad1" x1="0%" y1="0%" x2="100%" y2="100%">
      <stop offset="0%" style="stop-color:#4F46E5;stop-opacity:1" />
      <stop offset="100%" style="stop-color:#7C3AED;stop-opacity:1" />
    </linearGradient>
  </defs>
  <circle cx="256" cy="256" r="256" fill="#111827" />
  <path fill="url(#grad1)" d="M347.428 136.025c-18.344-18.344-43.67-29.697-71.632-29.697a115.27 115.27 0 0 0-41.742 7.891c-7.75-21.164-27.854-36.328-51.568-36.328-30.276 0-54.87 24.594-54.87 54.87 0 1.874.13 3.747.26 5.621-21.293 15.672-35.174 41.057-35.174 69.627 0 19.642 6.617 37.856 17.676 52.347-11.059 14.49-17.676 32.704-17.676 52.346 0 28.569 13.88 53.954 35.174 69.626a54.736 54.736 0 0 0-.26 5.621c0 30.276 24.594 54.87 54.87 54.87 23.714 0 43.818-15.164 51.568-36.328a115.27 115.27 0 0 0 41.742 7.89c27.962 0 53.288-11.352 71.632-29.696 18.344-18.344 29.696-43.67 29.696-71.632 0-14.75-3.228-28.829-8.983-41.482 5.755-12.654 8.983-26.732 8.983-41.482 0-27.962-11.352-53.288-29.696-71.632zm-102.11 206.534a31.667 31.667 0 0 1-11.181 2.003c-12.794 0-23.988-7.891-28.699-19.122a11.86 11.86 0 0 0-11.312-7.501c-.39 0-.909.13-1.3.13-6.226.909-10.937 6.096-10.937 12.534 0 7.112 5.756 12.923 12.923 12.923a12.76 12.76 0 0 0 12.794-11.884c5.496 10.677 15.672 18.213 27.702 19.901-1.939 4.068-3.098 8.658-3.098 13.493 0 17.157 13.883 31.04 31.041 31.04 13.363 0 24.724-8.528 29.045-20.291a89.05 89.05 0 0 1-47.519-32.226h.541zm61.086-170.467c-16.06-11.182-35.434-17.805-56.336-17.805-23.714 0-45.397 8.398-62.383 22.199v-43.43c0-18.474 14.922-33.397 33.397-33.397 16.97 0 30.927 12.664 33.137 29.045-15.411 5.105-26.6 19.642-26.6 36.798 0 21.423 17.286 38.765 38.765 38.765 21.423 0 38.764-17.286 38.764-38.765 0-9.893-3.747-18.948-9.893-25.759a95.916 95.916 0 0 1 34.57 31.775c-10.872 1.55-21.034 5.886-29.303 12.374a12.975 12.975 0 0 0-6.096-1.614c-6.877 0-12.533 5.496-12.533 12.534 0 6.877 5.496 12.534 12.533 12.534.26 0 .39-.13.649-.13.13 6.747 5.626 12.143 12.404 12.143 6.877 0 12.534-5.621 12.534-12.534 0-3.877-1.744-7.241-4.459-9.631 7.38-5.366 16.32-8.659 25.954-8.659 1.874 0 3.747.13 5.62.26a95.29 95.29 0 0 1-40.124 37.077zm39.344 91.69c0 15.024-4.588 29.045-12.404 40.617-1.614-5.625-4.026-10.872-6.877-15.8 4.847-7.242 7.75-15.932 7.75-25.306 0-25.305-20.42-45.787-45.786-45.787-25.306 0-45.786 20.42-45.786 45.787 0 25.305 20.42 45.786 45.786 45.786 9.243 0 17.806-2.778 25.047-7.501a89.968 89.968 0 0 1 15.8 6.617c-11.571 7.632-25.435 12.144-40.36 12.144-10.028 0-19.642-2.069-28.44-5.756 1.355-3.357 2.134-7.001 2.134-10.872 0-16.32-13.104-29.565-29.436-29.565-7.371 0-14.055 2.778-19.251 7.242a29.224 29.224 0 0 0-7.242-15.542c4.458-4.977 10.742-8.138 17.805-8.138 12.273 0 22.459 9.372 23.498 21.553.26 2.134 2.069 3.618 4.068 3.618s3.877-1.484 4.068-3.618a73.12 73.12 0 0 1 7.19-26.732c-10.157-9.762-16.71-23.324-17.156-38.506a73.858 73.858 0 0 1 65.35-40.553c13.234 0 25.77 3.617 36.512 9.891a74.13 74.13 0 0 1 36.642 63.81zm-114.643 33.526c.13-6.487-5.107-11.884-11.614-12.014h-.39c-6.617 0-12.014 5.366-12.014 12.014s5.366 12.013 12.014 12.013c6.617.132 11.874-5.234 12.014-12.013h-.01zm75.36-104.614c-13.493 0-24.465 10.981-24.465 24.465 0 13.493 10.982 24.465 24.465 24.465 13.493 0 24.464-10.982 24.464-24.465 0-13.493-10.981-24.465-24.464-24.465z"/>
</svg> 